<?xml version="1.0" encoding="utf-8"?>
<svg version="1.1" id="Layer_1" x="0px" y="0px" width="841.89px" height="595.28px" viewBox="0 0 841.89 595.28" enable-background="new 0 0 841.89 595.28" xmlns="http://www.w3.org/2000/svg">
  <g>
    <g id="MYGPS_copia_8_">
      <g>
        <path fill-rule="evenodd" clip-rule="evenodd" fill="#C1181D" d="M 315.664 260.238 L 288.173 305.47 L 260.098 260.238 L 230.074 260.238 L 274.917 330.621 L 274.917 371.898 C 274.917 371.898 275.455 390.281 288.077 390.281 C 298.624 390.281 300.263 371.898 300.263 371.898 L 300.263 330.621 L 345.886 260.238 L 315.664 260.238 L 315.664 260.238 Z"/>
      </g>
    </g>
    <g id="Forma_1_8_">
      <g>
        <path fill-rule="evenodd" clip-rule="evenodd" fill="#C1181D" d="M241.897,225.793l6.412,6.408&#10;&#9;&#9;&#9;&#9;c20.939-20.944,55.016-20.94,75.965,0.009l6.406-6.417C306.211,201.316,266.369,201.316,241.897,225.793z M252.974,236.875&#10;&#9;&#9;&#9;&#9;l6.425,6.412c14.822-14.828,38.952-14.828,53.789,0l6.414-6.412C301.24,218.502,271.345,218.502,252.974,236.875z&#10;&#9;&#9;&#9;&#9; M264.422,248.312l6.412,6.414c8.53-8.526,22.4-8.526,30.922,0.004l6.406-6.412C296.094,236.255,276.476,236.255,264.422,248.312&#10;&#9;&#9;&#9;&#9;z"/>
      </g>
    </g>
    <g id="Forma_2_8_">
      <g>
        <path fill-rule="evenodd" clip-rule="evenodd" fill="#C1181D" d="M286.573,254.702c-9.924,0-11.326,4.955-11.326,4.955&#10;&#9;&#9;&#9;&#9;l11.57,18.182l10.861-18.182C297.679,259.657,296.207,254.702,286.573,254.702z"/>
      </g>
    </g>
  </g>
</svg>